<?xml version="1.0" encoding="UTF-8"?>
<svg version="1.1" xmlns="http://www.w3.org/2000/svg" width="400" height="400">
<path d="M0 0 C132 0 264 0 400 0 C400 132 400 264 400 400 C268 400 136 400 0 400 C0 268 0 136 0 0 Z " fill="#000000" transform="translate(0,0)"/>
<path d="M0 0 C5.35048061 0.37328935 7.50912907 1.9957657 11 6 C9.35 6 7.7 6 6 6 C6.01160156 6.55945313 6.02320313 7.11890625 6.03515625 7.6953125 C6.11923413 15.16623304 5.60066109 22.55609286 5 30 C4.43152344 30.15855469 3.86304688 30.31710938 3.27734375 30.48046875 C-2.35195689 32.18147612 -6.42914282 34.28617854 -11 38 C-11.495 38.99 -11.495 38.99 -12 40 C-12.66 40 -13.32 40 -14 40 C-15.3006392 42.50122923 -16.20428699 44.70223654 -17 47.4375 C-18.84417704 51.96500343 -22.65754277 53.25678942 -26.91796875 55.15234375 C-27.60503906 55.43207031 -28.29210937 55.71179688 -29 56 C-28.01 58.97 -28.01 58.97 -27 62 C-26.01 61.67 -25.02 61.34 -24 61 C-23.83564453 61.88751953 -23.83564453 61.88751953 -23.66796875 62.79296875 C-22.43854837 68.92008005 -21.36887552 73.21018294 -16.1875 77.125 C-13.09228844 79.01278278 -13.09228844 79.01278278 -10.0625 80.375 C-6.26373767 82.39066981 -2.95543782 84.86094031 0 88 C0 88.66 0 89.32 0 90 C0.99 90.33 1.98 90.66 3 91 C10.27812128 99.26671592 9.75845764 108.97362965 9.65026855 119.29431152 C9.60735822 123.99516958 9.67281558 128.69417664 9.7421875 133.39453125 C9.75495728 134.31825531 9.76772705 135.24197937 9.78088379 136.19369507 C9.99220082 147.67846744 11.69561009 158.75619978 14 170 C14.18578613 170.96760254 14.37157227 171.93520508 14.56298828 172.93212891 C16.64871788 183.73509246 19.28812841 193.86067369 23.8527832 203.90063477 C24.61531107 205.5799543 25.31429781 207.28787402 26 209 C25.67 209.66 25.34 210.32 25 211 C2.30701866 176.83982064 -3.58761366 139.13301182 -4 99 C-5.11272432 100.58280975 -6.22452307 102.1662702 -7.3359375 103.75 C-7.9551709 104.63171875 -8.5744043 105.5134375 -9.21240234 106.421875 C-10.7185925 108.59414597 -12.17675466 110.78912443 -13.625 113 C-16.30296844 116.5682505 -19.55712324 119.06977563 -23.125 121.6875 C-33.30764532 129.16071945 -41.63962658 138.77240273 -49 149 C-49.65613281 149.88816406 -50.31226563 150.77632812 -50.98828125 151.69140625 C-62.5530588 168.04761707 -65.18625084 184.5931235 -65.625 204.25 C-65.66329936 205.6888226 -65.70235739 207.12762521 -65.7421875 208.56640625 C-65.83684361 212.04408495 -65.92133063 215.52191852 -66 219 C-67.03060547 219.27263672 -67.03060547 219.27263672 -68.08203125 219.55078125 C-69.43361328 219.92783203 -69.43361328 219.92783203 -70.8125 220.3125 C-71.70582031 220.55613281 -72.59914062 220.79976562 -73.51953125 221.05078125 C-76.10319011 222.0394885 -77.36027821 222.79040769 -79 225 C-79.48108188 228.47910224 -79.48108188 228.47910224 -78 232 C-70.67103217 238.08892555 -60.9931741 239.19626868 -51.83203125 240 C-50.53392517 240.12086472 -50.53392517 240.12086472 -49.20959473 240.24417114 C-46.41110952 240.50255774 -43.61187839 240.75149433 -40.8125 241 C-38.87847698 241.17667587 -36.94447645 241.35359813 -35.01049805 241.53076172 C-22.62971973 242.652097 -10.24677944 243.63349238 2.16674805 244.31640625 C8.04605823 244.66589288 13.34672873 245.33212881 19 247 C19.86367187 247.24878906 20.72734375 247.49757813 21.6171875 247.75390625 C30.57627032 250.96243591 37.6090427 256.7534727 42.125 265.1875 C43.75369664 268.9127104 44.78017632 271.90407434 44 276 C42.875 278.375 42.875 278.375 41 280 C38.375 280.625 38.375 280.625 35 280 C33.5826897 279.11557468 32.19983219 278.1749327 30.84375 277.19921875 C15.58578837 266.8155423 -1.21256427 266.34850365 -19.02444458 266.18185425 C-19.77047943 266.17469391 -20.51651428 266.16753357 -21.28515625 266.16015625 C-22.02708221 266.15323761 -22.76900818 266.14631897 -23.53341675 266.13919067 C-46.67865353 265.83248541 -79.04073499 263.3026495 -96.875 246.625 C-100.89383263 242.31710981 -102.64189933 238.4619421 -103.5 232.5625 C-102.45263653 225.1000353 -97.79654348 220.41459397 -92.2578125 215.640625 C-90 214 -90 214 -88.20898438 213.20922852 C-86.21058066 212.29617351 -84.6426031 211.46490581 -83 210 C-82.34984484 206.83527415 -82.16215937 204.59403405 -82.25 201.4375 C-82.22687433 199.71992348 -82.1953886 198.0024425 -82.15625 196.28515625 C-82.13949219 195.40746582 -82.12273437 194.52977539 -82.10546875 193.62548828 C-81.3870391 175.74124636 -75.71556751 158.43170773 -69 142 C-88.13616339 159.52657955 -97.79882289 181.86097729 -103 207 C-107.7297096 202.2702904 -106.24314365 192.79816313 -106.25537109 186.47045898 C-106.14330207 175.44685589 -104.74765563 164.41196498 -101 154 C-99.22293791 156.66559313 -98.12451727 159.0280615 -97 162 C-96.68289062 161.55011719 -96.36578125 161.10023438 -96.0390625 160.63671875 C-88.84428421 150.71905475 -80.74681667 142.3922486 -71 135 C-69.8207928 134.07039616 -68.64384731 133.13791869 -67.46875 132.203125 C-66.22917597 131.21873829 -64.98959268 130.23436323 -63.75 129.25 C-63.1715332 128.78980469 -62.59306641 128.32960937 -61.99707031 127.85546875 C-58.43807634 125.05079343 -54.78149454 122.50223387 -51 120 C-40.84195397 112.38539054 -33.45063045 104.97944095 -27 94 C-26.38125 92.96875 -25.7625 91.9375 -25.125 90.875 C-23.59806654 86.97283672 -23.26804186 83.15927027 -23 79 C-23.6084375 78.91234375 -24.216875 78.8246875 -24.84375 78.734375 C-28.35185483 77.53958567 -29.11919515 74.9833146 -30.76171875 71.8203125 C-33.32585546 65.98022825 -36 59.43410302 -36 53 C-34.13671875 51.4921875 -34.13671875 51.4921875 -31.6875 49.875 C-26.77096599 46.26490348 -25.163281 42.8966313 -24 37 C-46.64204937 39.46109232 -66.26705322 54.51398365 -80.40917969 71.71386719 C-86.30968634 79.27006361 -91.16498016 87.192762 -95 96 C-95.56654297 97.28390625 -95.56654297 97.28390625 -96.14453125 98.59375 C-100.02998412 108.25644927 -102.08108779 118.89165848 -102.0546875 129.3046875 C-102.04167015 140.46356425 -102.72618334 146.92596079 -110.5546875 155.2109375 C-114.33339083 159.52083236 -115.94686781 164.54982893 -117.6875 169.9375 C-118.06455078 171.09572266 -118.06455078 171.09572266 -118.44921875 172.27734375 C-118.63097656 172.84582031 -118.81273438 173.41429687 -119 174 C-119.66 174 -120.32 174 -121 174 C-130.50850196 140.62792759 -128.17980901 109.11753811 -111.17041016 78.4140625 C-110.12986093 76.59932123 -109.06776928 74.79883694 -108 73 C-107.48542236 72.10450439 -107.48542236 72.10450439 -106.96044922 71.19091797 C-89.90384957 41.85545562 -60.28711316 22.62435237 -28 14 C-19.05008058 11.87152557 -10.22312986 10.56080334 -1 11 C-0.67 7.37 -0.34 3.74 0 0 Z " fill="#FAF9F9" transform="translate(200,60)"/>
<path d="M0 0 C18.39250255 4.93351833 36.31665102 13.19993431 52 24 C52.66902344 24.45632812 53.33804688 24.91265625 54.02734375 25.3828125 C79.7906392 43.82279902 96.28488627 70.56761819 101.75 101.6875 C105.52210702 125.71439549 103.6700372 151.46891032 94 174 C93.34 174.66 92.68 175.32 92 176 C91.75765625 174.99582031 91.5153125 173.99164063 91.265625 172.95703125 C90.3826642 169.33055322 89.46859654 165.71269964 88.53808594 162.09814453 C88.08116734 160.31649372 87.63686966 158.5316137 87.1953125 156.74609375 C83.01754311 141.48728842 75.16259173 127.07728293 65 115 C65 117.9766507 65.99078504 120.57842436 66.8125 123.4375 C71.40985755 140.42101701 72.46318552 156.92182443 72.33618164 174.48535156 C72.31216072 178.05035279 72.31569968 181.6146236 72.32226562 185.1796875 C72.31670071 187.45312947 72.30959838 189.72656832 72.30078125 192 C72.30169266 193.06234863 72.30260406 194.12469727 72.30354309 195.21923828 C72.29401108 196.19876465 72.28447906 197.17829102 72.2746582 198.1875 C72.26774712 199.47720703 72.26774712 199.47720703 72.26069641 200.79296875 C72 203 72 203 70 206 C69.87625 205.319375 69.7525 204.63875 69.625 203.9375 C68.23060966 197.3838654 66.09873728 191.59466663 63.125 185.625 C62.79757812 184.95984375 62.47015625 184.2946875 62.1328125 183.609375 C59.88267826 179.23216074 57.26910255 175.6791642 54 172 C54.06928711 172.58668457 54.13857422 173.17336914 54.20996094 173.77783203 C55.0781277 182.01923715 55.21974781 190.21830079 55.24023438 198.49658203 C55.24995468 200.86396244 55.28108813 203.23047762 55.3125 205.59765625 C55.37527121 214.63222655 55.14597075 223.39870453 52 232 C51.34 232.33 50.68 232.66 50 233 C49.401875 232.195625 48.80375 231.39125 48.1875 230.5625 C46.19052724 227.77672016 46.19052724 227.77672016 43 227 C42.13181107 208.19317716 41.73010594 190.52726291 45.1015625 171.9609375 C45.24368164 171.17428711 45.38580078 170.38763672 45.53222656 169.57714844 C45.86029951 167.76966511 46.1934181 165.96309376 46.53027344 164.15722656 C51.85956233 134.85082069 53.15152553 103.86130354 45 75 C44.66968682 73.68218154 44.34373417 72.36325748 44.0234375 71.04296875 C37.14914823 44.41256989 22.62435303 21.98673867 3 3 C1.99781422 2.00219057 0.99677941 1.00321025 0 0 Z " fill="#FBFAFA" transform="translate(224,73)"/>
<path d="M0 0 C1.15725586 -0.01836914 1.15725586 -0.01836914 2.33789062 -0.03710938 C4.33082707 -0.04233104 6.32333338 0.0648659 8.3125 0.1875 C8.9725 0.8475 9.6325 1.5075 10.3125 2.1875 C9.65652832 2.27314209 9.00055664 2.35878418 8.32470703 2.44702148 C5.361803 2.83596501 2.39965747 3.23041273 -0.5625 3.625 C-1.59503906 3.75970703 -2.62757813 3.89441406 -3.69140625 4.03320312 C-4.67753906 4.16533203 -5.66367188 4.29746094 -6.6796875 4.43359375 C-7.59089355 4.55404053 -8.50209961 4.6744873 -9.44091797 4.79858398 C-11.71483424 5.08112951 -11.71483424 5.08112951 -13.6875 6.1875 C-16.3598621 6.32165472 -19.01000488 6.23068541 -21.6875 6.1875 C-20.10613234 3.02476469 -16.88298266 2.28830603 -13.6875 1.1875 C-9.14210143 -0.01164258 -4.66829593 0.00395954 0 0 Z " fill="#E8E3E1" transform="translate(217.6875,110.8125)"/>
<path d="M0 0 C-3.41210201 1.98711598 -6.83041936 3.96328601 -10.25 5.9375 C-11.21808594 6.50146484 -12.18617188 7.06542969 -13.18359375 7.64648438 C-14.11816406 8.18466797 -15.05273438 8.72285156 -16.015625 9.27734375 C-17.30388184 10.02359009 -17.30388184 10.02359009 -18.61816406 10.78491211 C-20.77633041 11.8858955 -22.63383748 12.53778404 -25 13 C-19.80426708 5.72597391 -9.38752662 -2.72170291 0 0 Z " fill="#DED7D4" transform="translate(210,103)"/>
<path d="M0 0 C8.13007025 0.14993684 16.95700526 1.43649745 22.96533203 7.44482422 C21.48590176 7.15449761 20.0068058 6.86246743 18.52783203 6.56982422 C17.60099609 6.38806641 16.67416016 6.20630859 15.71923828 6.01904297 C14.11453588 5.68444545 12.51399196 5.32440911 10.93017578 4.90185547 C2.80106311 2.75240818 -5.67597817 2.78746738 -14.03466797 2.44482422 C-10.42455405 -1.1652897 -4.87771848 0.01312391 0 0 Z " fill="#D4CDC8" transform="translate(210.03466796875,121.55517578125)"/>
<path d="M0 0 C4.52048157 3.13922331 6.51545911 6.21495828 9 11 C8.01 12.485 8.01 12.485 7 14 C6.01 14 5.02 14 4 14 C3.32968281 12.0429132 2.66385317 10.08428887 2 8.125 C1.62875 7.03445312 1.2575 5.94390625 0.875 4.8203125 C0 2 0 2 0 0 Z " fill="#0F0D0D" transform="translate(287,186)"/>
<path d="M0 0 C0 1.32 0 2.64 0 4 C-4.95 4 -9.9 4 -15 4 C-9.57683727 -0.06737205 -6.72144654 -0.12925859 0 0 Z " fill="#E7E0DF" transform="translate(160,121)"/>
<path d="M0 0 C0.33 1.32 0.66 2.64 1 4 C-5.93 6.97 -5.93 6.97 -13 10 C-10.98028865 5.9605773 -10.11931698 5.07670377 -6.5 2.75 C-5.30890625 1.96882812 -5.30890625 1.96882812 -4.09375 1.171875 C-2 0 -2 0 0 0 Z " fill="#E6E1DD" transform="translate(163,130)"/>
<path d="M0 0 C1.97625073 2.9643761 3.29886906 5.78787746 4.6875 9.0625 C5.14511719 10.12597656 5.60273438 11.18945312 6.07421875 12.28515625 C6.37972656 13.18105469 6.68523437 14.07695312 7 15 C6.67 15.66 6.34 16.32 6 17 C4.79157828 15.30640147 3.60896378 13.59436954 2.4375 11.875 C1.77621094 10.92367188 1.11492187 9.97234375 0.43359375 8.9921875 C-1.26378003 5.44944005 -1.01240833 3.72876073 0 0 Z " fill="#D0C7C3" transform="translate(219,254)"/>
<path d="M0 0 C0.66 0.33 1.32 0.66 2 1 C-0.08066421 5.68149446 -2.7454629 7.24452752 -7.16015625 9.3984375 C-9 10 -9 10 -11 9 C-9.73113036 7.87278564 -8.45982438 6.74831342 -7.1875 5.625 C-6.47980469 4.99851562 -5.77210938 4.37203125 -5.04296875 3.7265625 C-3 2 -3 2 0 0 Z " fill="#D7CFCD" transform="translate(196,106)"/>
<path d="M0 0 C5.98551772 1.50170462 11.61255621 2.94226163 17 6 C13.58140282 7.13953239 12.9805951 6.85624079 9.75 5.625 C5.79205273 4.20635769 2.1737418 3.44401509 -2 3 C-1.34 2.01 -0.68 1.02 0 0 Z " fill="#C6BCB9" transform="translate(216,122)"/>
<path d="M0 0 C0.33 0 0.66 0 1 0 C3.48063781 10.37357631 3.48063781 10.37357631 2 16 C-2.24810893 9.62783661 -2.24810893 9.62783661 -1.6796875 5.8984375 C-1.1822205 3.91557609 -0.59654391 1.95533837 0 0 Z " fill="#E9E5E3" transform="translate(216,242)"/>
<path d="M0 0 C0.33 0.66 0.66 1.32 1 2 C-1.60085653 5.97778057 -5.07817699 9.32602977 -9 12 C-9.99 12 -10.98 12 -12 12 C-8.04 8.04 -4.08 4.08 0 0 Z " fill="#161216" transform="translate(131,201)"/>
<path d="M0 0 C-0.99 0.33 -1.98 0.66 -3 1 C-3.33 1.99 -3.66 2.98 -4 4 C-6.64 4 -9.28 4 -12 4 C-9.8923766 -0.2152468 -4.26296995 -1.87570678 0 0 Z " fill="#D4CDCA" transform="translate(208,113)"/>
<path d="M0 0 C0.66 0 1.32 0 2 0 C2.33 0.66 2.66 1.32 3 2 C4.98 1.34 6.96 0.68 9 0 C6.68055212 3.47917182 4.73630036 4.29429766 1 6 C0 5 0 5 -0.0625 2.4375 C-0.041875 1.633125 -0.02125 0.82875 0 0 Z " fill="#292423" transform="translate(148,137)"/>
<path d="M0 0 C0.66 0.33 1.32 0.66 2 1 C1.34 3.31 0.68 5.62 0 8 C-1.65 8.33 -3.3 8.66 -5 9 C-4.34 8.67 -3.68 8.34 -3 8 C-2.63451555 6.67511887 -2.3062434 5.33981486 -2 4 C-1.36345658 2.6520257 -0.70394612 1.31403276 0 0 Z " fill="#464140" transform="translate(196,110)"/>
<path d="M0 0 C4.875 3.625 4.875 3.625 6 7 C4.68 7 3.36 7 2 7 C1.34 4.69 0.68 2.38 0 0 Z " fill="#352E32" transform="translate(287,186)"/>
</svg>
